<svg width="16" height="16" viewBox="0 0 16 16" fill="none" xmlns="http://www.w3.org/2000/svg"><path fill-rule="evenodd" clip-rule="evenodd" d="M11.3 9.27513C12.6154 8.85785 13.5 8.08652 13.5 7.246V5.354C13.5 4.1 11.531 3 9.1 3C6.669 3 4.7 4.1 4.7 5.354V6.62487C3.3846 7.04215 2.5 7.81348 2.5 8.654V10.546C2.5 11.8 4.469 12.9 6.9 12.9C9.331 12.9 11.3 11.8 11.3 10.546V9.27513ZM5.2807 8.39534C6.03934 9.10255 7.4652 9.6 9.1 9.6C9.24851 9.6 9.39529 9.5959 9.54 9.5879V10.315C8.757 10.8239 7.83241 11.0704 6.9 11.019C5.96759 11.0704 5.043 10.8239 4.26 10.315V8.885C4.57967 8.67725 4.92293 8.51322 5.2807 8.39534Z" fill="#B3B4D0"/></svg>